<svg width="24" height="24" viewBox="0 0 24 24" fill="none" xmlns="http://www.w3.org/2000/svg">
<g id="right">
<g id="arrow_back">
<mask id="mask0_761_7277" style="mask-type:alpha" maskUnits="userSpaceOnUse" x="0" y="0" width="24" height="24">
<rect id="Bounding box" width="24" height="24" fill="#D9D9D9"/>
</mask>
<g mask="url(#mask0_761_7277)">
<path id="arrow_back_2" d="M7.825 13L12.725 17.9C12.925 18.1 13.0208 18.3333 13.0125 18.6C13.0042 18.8667 12.9 19.1 12.7 19.3C12.5 19.4833 12.2667 19.5792 12 19.5875C11.7333 19.5958 11.5 19.5 11.3 19.3L4.7 12.7C4.6 12.6 4.52917 12.4917 4.4875 12.375C4.44584 12.2583 4.425 12.1333 4.425 12C4.425 11.8667 4.44584 11.7417 4.4875 11.625C4.52917 11.5083 4.6 11.4 4.7 11.3L11.3 4.69999C11.4833 4.51665 11.7125 4.42499 11.9875 4.42499C12.2625 4.42499 12.5 4.51665 12.7 4.69999C12.9 4.89999 13 5.13749 13 5.41249C13 5.68749 12.9 5.92499 12.7 6.12499L7.825 11H19C19.2833 11 19.5208 11.0958 19.7125 11.2875C19.9042 11.4792 20 11.7167 20 12C20 12.2833 19.9042 12.5208 19.7125 12.7125C19.5208 12.9042 19.2833 13 19 13H7.825Z" fill="#1C1B1F"/>
</g>
</g>
</g>
</svg>
