<svg xmlns="http://www.w3.org/2000/svg" width="16" height="16" viewBox="0 0 16 16" fill="none">
  <g clip-path="url(#clip0_775_2092)">
    <path d="M14.6 1.3705C13.385 0.155501 11.27 0.230501 9.98 1.5355L7.31 4.2055C6.98 4.5355 6.98 5.0155 7.31 5.3455C7.64 5.6755 8.12 5.6755 8.45 5.3455L11.12 2.6605C11.855 1.9255 12.905 1.9255 13.475 2.4955C14.045 3.0655 14.045 4.2055 13.31 4.8505L10.64 7.5355C10.31 7.8655 10.31 8.3455 10.64 8.6755C10.805 8.8405 11.045 8.9155 11.21 8.9155C11.45 8.9155 11.615 8.8405 11.78 8.6755L14.45 5.9905C15.83 4.7005 15.83 2.5855 14.6 1.3705Z" fill="white"/>
    <path d="M7.64 10.5511L4.715 13.4761C4.145 14.0461 3.095 14.0461 2.525 13.4761C2.195 13.1461 2.045 12.8311 2.045 12.3361C2.045 11.8561 2.21 11.5261 2.525 11.1961L5.525 8.19609C5.855 7.86609 5.855 7.38609 5.525 7.05609C5.195 6.72609 4.715 6.72609 4.385 7.05609L1.385 10.0561C0.83 10.6261 0.5 11.4361 0.5 12.3361C0.5 13.2361 0.83 13.9561 1.385 14.6161C1.955 15.1861 2.765 15.5161 3.65 15.5161C4.46 15.5161 5.27 15.1861 5.915 14.6161L8.915 11.6161C9.245 11.2861 9.245 10.8061 8.915 10.4761C8.525 10.2211 7.955 10.2211 7.64 10.5511Z" fill="white"/>
    <path d="M10.31 5.67523C9.97996 5.34523 9.49996 5.34523 9.16996 5.67523L6.01996 8.84023C5.68996 9.17023 5.68996 9.65023 6.01996 9.98023C6.18496 10.1452 6.42496 10.2202 6.58996 10.2202C6.75496 10.2202 6.99496 10.1452 7.15996 9.98023L10.325 6.81523C10.64 6.48523 10.64 5.99023 10.31 5.67523Z" fill="white"/>
  </g>
  <defs>
    <clipPath id="clip0_775_2092">
      <rect width="15" height="15" fill="white" transform="translate(0.5 0.5)"/>
    </clipPath>
  </defs>
</svg>