<svg xmlns="http://www.w3.org/2000/svg" width="16" height="16" viewBox="0 0 16 16" fill="none">
  <g clip-path="url(#clip0_1003_8170)">
    <path d="M14.6 1.36855C13.385 0.153548 11.27 0.228548 9.98 1.53355L7.31 4.20355C6.98 4.53355 6.98 5.01355 7.31 5.34355C7.64 5.67355 8.12 5.67355 8.45 5.34355L11.12 2.65855C11.855 1.92355 12.905 1.92355 13.475 2.49355C14.045 3.06355 14.045 4.20355 13.31 4.84855L10.64 7.53355C10.31 7.86355 10.31 8.34355 10.64 8.67355C10.805 8.83855 11.045 8.91355 11.21 8.91355C11.45 8.91355 11.615 8.83855 11.78 8.67355L14.45 5.98855C15.83 4.69855 15.83 2.58355 14.6 1.36855Z" fill="#939393"/>
    <path d="M7.64 10.5472L4.715 13.4722C4.145 14.0422 3.095 14.0422 2.525 13.4722C2.195 13.1422 2.045 12.8272 2.045 12.3322C2.045 11.8522 2.21 11.5222 2.525 11.1922L5.525 8.19219C5.855 7.86219 5.855 7.38219 5.525 7.05219C5.195 6.72219 4.715 6.72219 4.385 7.05219L1.385 10.0522C0.83 10.6222 0.5 11.4322 0.5 12.3322C0.5 13.2322 0.83 13.9522 1.385 14.6122C1.955 15.1822 2.765 15.5122 3.65 15.5122C4.46 15.5122 5.27 15.1822 5.915 14.6122L8.915 11.6122C9.245 11.2822 9.245 10.8022 8.915 10.4722C8.525 10.2172 7.955 10.2172 7.64 10.5472Z" fill="#939393"/>
    <path d="M10.31 5.67328C9.97996 5.34328 9.49996 5.34328 9.16996 5.67328L6.01996 8.83828C5.68996 9.16828 5.68996 9.64828 6.01996 9.97828C6.18496 10.1433 6.42496 10.2183 6.58996 10.2183C6.75496 10.2183 6.99496 10.1433 7.15996 9.97828L10.325 6.81328C10.64 6.48328 10.64 5.98828 10.31 5.67328Z" fill="#939393"/>
  </g>
  <defs>
    <clipPath id="clip0_1003_8170">
      <rect width="15" height="15" fill="white" transform="translate(0.5 0.5)"/>
    </clipPath>
  </defs>
</svg>