<svg xmlns="http://www.w3.org/2000/svg" width="7" height="5" viewBox="0 0 7 5" fill="none">
  <path d="M0.0240566 5.008L0.840057 2.464C0.562723 2.368 0.354723 2.20267 0.216057 1.968C0.07739 1.73333 0.00805664 1.49333 0.00805664 1.248C0.00805664 0.906667 0.130723 0.613333 0.376057 0.368C0.632057 0.122667 0.930723 0 1.27206 0C1.66672 0 1.97606 0.133333 2.20006 0.4C2.43472 0.656 2.55206 0.965333 2.55206 1.328C2.55206 1.57333 2.53072 1.80267 2.48806 2.016C2.44539 2.21867 2.37606 2.45867 2.28006 2.736L1.56006 5.008H0.0240566ZM3.62406 5.008L4.44006 2.464C4.16272 2.368 3.95472 2.20267 3.81606 1.968C3.67739 1.73333 3.60806 1.49333 3.60806 1.248C3.60806 0.906667 3.73072 0.613333 3.97606 0.368C4.23206 0.122667 4.53072 0 4.87206 0C5.26672 0 5.57606 0.133333 5.80006 0.4C6.03472 0.656 6.15206 0.965333 6.15206 1.328C6.15206 1.57333 6.13072 1.80267 6.08806 2.016C6.04539 2.21867 5.97606 2.45867 5.88006 2.736L5.16006 5.008H3.62406Z" fill="#55EAB0"/>
</svg>