<svg xmlns="http://www.w3.org/2000/svg" width="7" height="5" viewBox="0 0 7 5" fill="none">
  <path d="M2.12802 5.008C1.73336 5.008 1.41869 4.87467 1.18402 4.608C0.960022 4.34133 0.848022 4.032 0.848022 3.68C0.848022 3.43467 0.869356 3.21067 0.912022 3.008C0.965356 2.79467 1.03469 2.54933 1.12002 2.272L1.84002 0H3.37602L2.56002 2.544C2.83736 2.62933 3.04536 2.79467 3.18402 3.04C3.32269 3.27467 3.39202 3.51467 3.39202 3.76C3.39202 4.10133 3.26402 4.39467 3.00802 4.64C2.76269 4.88533 2.46936 5.008 2.12802 5.008ZM5.74402 5.008C5.34936 5.008 5.03469 4.87467 4.80002 4.608C4.57602 4.34133 4.46402 4.032 4.46402 3.68C4.46402 3.43467 4.48536 3.21067 4.52802 3.008C4.58136 2.79467 4.65069 2.54933 4.73602 2.272L5.45602 0H6.99202L6.17602 2.544C6.45336 2.62933 6.66136 2.79467 6.80002 3.04C6.93869 3.27467 7.00802 3.51467 7.00802 3.76C7.00802 4.10133 6.88002 4.39467 6.62402 4.64C6.37869 4.88533 6.08536 5.008 5.74402 5.008Z" fill="#55EAB0"/>
</svg>