<svg width="24" height="24" viewBox="0 0 24 24" fill="none" xmlns="http://www.w3.org/2000/svg">
<path d="M18.7788 8.34847L10.7811 16.7678C10.7115 16.8414 10.6287 16.8998 10.5376 16.9397C10.4464 16.9795 10.3487 17 10.25 17C10.1514 17 10.0536 16.9795 9.96251 16.9397C9.87138 16.8998 9.78861 16.8414 9.71895 16.7678L6.21999 13.0844C6.15024 13.0109 6.09492 12.9238 6.05717 12.8279C6.01943 12.7319 6 12.6291 6 12.5253C6 12.4214 6.01943 12.3186 6.05717 12.2227C6.09492 12.1268 6.15024 12.0396 6.21999 11.9662C6.28973 11.8927 6.37253 11.8345 6.46365 11.7948C6.55478 11.755 6.65245 11.7346 6.75108 11.7346C6.84971 11.7346 6.94738 11.755 7.0385 11.7948C7.12963 11.8345 7.21243 11.8927 7.28217 11.9662L10.2507 15.0912L17.7178 7.23159C17.8587 7.0833 18.0497 7 18.2489 7C18.4481 7 18.6392 7.0833 18.78 7.23159C18.9209 7.37987 19 7.58098 19 7.79069C19 8.00039 18.9209 8.2015 18.78 8.34978L18.7788 8.34847Z" fill="#C1C1C1"/>
</svg>
