<svg width="24" height="24" viewBox="0 0 24 24" fill="none" xmlns="http://www.w3.org/2000/svg">
<mask id="mask0_40002008_11162" style="mask-type:alpha" maskUnits="userSpaceOnUse" x="0" y="0" width="24" height="24">
<rect width="24" height="24" fill="#D9D9D9"/>
</mask>
<g mask="url(#mask0_40002008_11162)">
<path d="M11.6667 11.6667C10.75 11.6667 9.96528 11.3403 9.3125 10.6875C8.65972 10.0347 8.33333 9.25 8.33333 8.33333C8.33333 7.41667 8.65972 6.63194 9.3125 5.97917C9.96528 5.32639 10.75 5 11.6667 5C12.5833 5 13.3681 5.32639 14.0208 5.97917C14.6736 6.63194 15 7.41667 15 8.33333C15 9.25 14.6736 10.0347 14.0208 10.6875C13.3681 11.3403 12.5833 11.6667 11.6667 11.6667ZM5 18.3333V16C5 15.5278 5.12153 15.0938 5.36458 14.6979C5.60764 14.3021 5.93056 14 6.33333 13.7917C7.19444 13.3611 8.06944 13.0382 8.95833 12.8229C9.84722 12.6076 10.75 12.5 11.6667 12.5C12.5833 12.5 13.4861 12.6076 14.375 12.8229C15.2639 13.0382 16.1389 13.3611 17 13.7917C17.4028 14 17.7257 14.3021 17.9688 14.6979C18.2118 15.0938 18.3333 15.5278 18.3333 16V18.3333H5Z" fill="#C1C1C1"/>
</g>
</svg>
