<svg width="20" height="21" viewBox="0 0 20 21" fill="none" xmlns="http://www.w3.org/2000/svg">
<g id="MagnifyingGlass">
<path id="Vector" d="M18.1632 17.3371L14.453 13.6254C15.5654 12.1757 16.0848 10.3572 15.9057 8.53877C15.7267 6.7203 14.8626 5.03801 13.4888 3.83319C12.115 2.62836 10.3344 1.9912 8.5081 2.05097C6.68181 2.11074 4.94663 2.86296 3.65455 4.15504C2.36247 5.44711 1.61026 7.18229 1.55049 9.00859C1.49072 10.8349 2.12787 12.6155 3.3327 13.9893C4.53752 15.3631 6.21981 16.2272 8.03828 16.4062C9.85676 16.5853 11.6753 16.0659 13.1249 14.9535L16.8382 18.6676C16.9254 18.7548 17.0289 18.8239 17.1428 18.8711C17.2568 18.9183 17.3789 18.9426 17.5022 18.9426C17.6256 18.9426 17.7477 18.9183 17.8616 18.8711C17.9756 18.8239 18.0791 18.7548 18.1663 18.6676C18.2535 18.5804 18.3227 18.4768 18.3699 18.3629C18.4171 18.249 18.4414 18.1268 18.4414 18.0035C18.4414 17.8802 18.4171 17.7581 18.3699 17.6441C18.3227 17.5302 18.2535 17.4266 18.1663 17.3394L18.1632 17.3371ZM3.43739 9.25038C3.43739 8.19967 3.74897 7.17255 4.33271 6.29891C4.91646 5.42528 5.74615 4.74436 6.71689 4.34227C7.68762 3.94018 8.75579 3.83498 9.78631 4.03996C10.8168 4.24494 11.7634 4.75091 12.5064 5.49388C13.2494 6.23684 13.7553 7.18344 13.9603 8.21396C14.1653 9.24449 14.0601 10.3127 13.658 11.2834C13.2559 12.2541 12.575 13.0838 11.7014 13.6676C10.8277 14.2513 9.80061 14.5629 8.74989 14.5629C7.34137 14.5614 5.99096 14.0013 4.99499 13.0053C3.99901 12.0093 3.43884 10.6589 3.43739 9.25038Z" fill="#C1C1C1"/>
</g>
</svg>
