<svg width="18" height="18" viewBox="0 0 18 18" fill="none" xmlns="http://www.w3.org/2000/svg">
<g id="add">
<mask id="mask0_1017_4319" style="mask-type:alpha" maskUnits="userSpaceOnUse" x="0" y="0" width="18" height="18">
<rect id="Bounding box" width="18" height="18" fill="#D9D9D9"/>
</mask>
<g mask="url(#mask0_1017_4319)">
<path id="add_2" d="M8.325 9.675H5.175C4.98375 9.675 4.82344 9.61069 4.69406 9.48206C4.56469 9.35344 4.5 9.19406 4.5 9.00394C4.5 8.81381 4.56469 8.65312 4.69406 8.52187C4.82344 8.39062 4.98375 8.325 5.175 8.325H8.325V5.175C8.325 4.98375 8.38931 4.82344 8.51794 4.69406C8.64656 4.56469 8.80594 4.5 8.99606 4.5C9.18619 4.5 9.34687 4.56469 9.47812 4.69406C9.60937 4.82344 9.675 4.98375 9.675 5.175V8.325H12.825C13.0162 8.325 13.1766 8.38931 13.3059 8.51794C13.4353 8.64656 13.5 8.80594 13.5 8.99606C13.5 9.18619 13.4353 9.34687 13.3059 9.47812C13.1766 9.60937 13.0162 9.675 12.825 9.675H9.675V12.825C9.675 13.0162 9.61069 13.1766 9.48206 13.3059C9.35344 13.4353 9.19406 13.5 9.00394 13.5C8.81381 13.5 8.65312 13.4353 8.52187 13.3059C8.39062 13.1766 8.325 13.0162 8.325 12.825V9.675Z" fill="#767676"/>
</g>
</g>
</svg>
