<svg width="20" height="20" viewBox="0 0 20 20" fill="none" xmlns="http://www.w3.org/2000/svg">
<g id="close">
<mask id="mask0_1405_13979" style="mask-type:alpha" maskUnits="userSpaceOnUse" x="0" y="0" width="20" height="20">
<rect id="Bounding box" width="20" height="20" fill="#D9D9D9"/>
</mask>
<g mask="url(#mask0_1405_13979)">
<path id="close_2" d="M10.0001 10.4856L6.29488 14.1906C6.21696 14.2687 6.14217 14.3069 6.0705 14.3052C5.99897 14.3037 5.9189 14.2585 5.83029 14.1698C5.74154 14.0812 5.69717 14.0003 5.69717 13.9271C5.69717 13.8539 5.74154 13.773 5.83029 13.6844L9.51446 9.99999L5.80946 6.29478C5.7314 6.21686 5.69321 6.1386 5.69488 6.05999C5.6964 5.98152 5.74154 5.89797 5.83029 5.80936C5.9189 5.72061 5.99981 5.67624 6.073 5.67624C6.1462 5.67624 6.2271 5.72061 6.31571 5.80936L10.0001 9.51436L13.7053 5.80936C13.7832 5.73131 13.8615 5.68964 13.9401 5.68436C14.0186 5.67895 14.1021 5.72061 14.1907 5.80936C14.2795 5.89797 14.3238 5.97888 14.3238 6.05207C14.3238 6.12527 14.2795 6.20617 14.1907 6.29478L10.4857 9.99999L14.1907 13.7052C14.2688 13.7831 14.3104 13.8579 14.3157 13.9296C14.3211 14.0011 14.2795 14.0812 14.1907 14.1698C14.1021 14.2585 14.0212 14.3029 13.948 14.3029C13.8748 14.3029 13.7939 14.2585 13.7053 14.1698L10.0001 10.4856Z" fill="#939393"/>
</g>
</g>
</svg>
