<svg width="18" height="19" viewBox="0 0 18 19" fill="none" xmlns="http://www.w3.org/2000/svg">
<g id="info">
<mask id="mask0_899_15658" style="mask-type:alpha" maskUnits="userSpaceOnUse" x="0" y="0" width="18" height="19">
<rect id="Bounding box" y="0.5" width="18" height="18" fill="#D9D9D9"/>
</mask>
<g mask="url(#mask0_899_15658)">
<path id="info_2" d="M8.99587 13.1008C9.18599 13.1008 9.34668 13.0361 9.47793 12.9067C9.60918 12.7773 9.6748 12.617 9.6748 12.4258V9.27578C9.6748 9.08453 9.61049 8.92422 9.48187 8.79484C9.35324 8.66547 9.19387 8.60078 9.00374 8.60078C8.81362 8.60078 8.65293 8.66547 8.52168 8.79484C8.39043 8.92422 8.3248 9.08453 8.3248 9.27578V12.4258C8.3248 12.617 8.38912 12.7773 8.51774 12.9067C8.64637 13.0361 8.80574 13.1008 8.99587 13.1008ZM8.99587 7.25078C9.18599 7.25078 9.34668 7.18647 9.47793 7.05784C9.60918 6.92922 9.6748 6.76984 9.6748 6.57972C9.6748 6.38959 9.61049 6.22891 9.48187 6.09766C9.35324 5.96641 9.19387 5.90078 9.00374 5.90078C8.81362 5.90078 8.65293 5.96509 8.52168 6.09372C8.39043 6.22234 8.3248 6.38172 8.3248 6.57184C8.3248 6.76197 8.38912 6.92266 8.51774 7.05391C8.64637 7.18516 8.80574 7.25078 8.99587 7.25078ZM9.00505 16.7008C8.01405 16.7008 7.08105 16.5133 6.20605 16.1383C5.33105 15.7633 4.56543 15.2477 3.90918 14.5914C3.25293 13.9352 2.7373 13.1698 2.3623 12.2953C1.9873 11.4208 1.7998 10.4864 1.7998 9.49216C1.7998 8.49791 1.9873 7.56641 2.3623 6.69766C2.7373 5.82891 3.25293 5.06641 3.90918 4.41016C4.56543 3.75391 5.3308 3.23828 6.2053 2.86328C7.0798 2.48828 8.01418 2.30078 9.00843 2.30078C10.0027 2.30078 10.9342 2.48828 11.8029 2.86328C12.6717 3.23828 13.4342 3.75391 14.0904 4.41016C14.7467 5.06641 15.2623 5.83028 15.6373 6.70178C16.0123 7.57341 16.1998 8.50466 16.1998 9.49553C16.1998 10.4865 16.0123 11.4195 15.6373 12.2945C15.2623 13.1695 14.7467 13.9352 14.0904 14.5914C13.4342 15.2477 12.6703 15.7633 11.7988 16.1383C10.9272 16.5133 9.99593 16.7008 9.00505 16.7008ZM8.9998 15.3508C10.6248 15.3508 12.0061 14.782 13.1436 13.6445C14.2811 12.507 14.8498 11.1258 14.8498 9.50078C14.8498 7.87578 14.2811 6.49453 13.1436 5.35703C12.0061 4.21953 10.6248 3.65078 8.9998 3.65078C7.3748 3.65078 5.99355 4.21953 4.85605 5.35703C3.71855 6.49453 3.1498 7.87578 3.1498 9.50078C3.1498 11.1258 3.71855 12.507 4.85605 13.6445C5.99355 14.782 7.3748 15.3508 8.9998 15.3508Z" fill="#939393"/>
</g>
</g>
</svg>
