<svg width="70" height="70" viewBox="0 0 70 70" fill="none" xmlns="http://www.w3.org/2000/svg">
<g clip-path="url(#clip0_40002238_12048)">
<rect x="-5" y="-5" width="80" height="80" fill="#3B3B3B"/>
<path d="M29.3044 38.3077L38.3044 29.3077C38.4614 29.1507 38.6477 29.0262 38.8528 28.9412C39.0579 28.8563 39.2777 28.8126 39.4997 28.8126C39.7217 28.8126 39.9415 28.8563 40.1466 28.9412C40.3517 29.0262 40.538 29.1507 40.695 29.3077C40.852 29.4647 40.9765 29.651 41.0615 29.8561C41.1464 30.0612 41.1901 30.281 41.1901 30.503C41.1901 30.725 41.1464 30.9448 41.0615 31.1499C40.9765 31.355 40.852 31.5413 40.695 31.6983L31.695 40.6983C31.378 41.0153 30.948 41.1934 30.4997 41.1934C30.0514 41.1934 29.6214 41.0153 29.3044 40.6983C28.9874 40.3813 28.8093 39.9513 28.8093 39.503C28.8093 39.0547 28.9874 38.6247 29.3044 38.3077ZM47.7263 22.2764C46.1424 20.6961 43.9963 19.8086 41.7588 19.8086C39.5214 19.8086 37.3753 20.6961 35.7914 22.2764L31.5558 26.5078C31.2388 26.8249 31.0607 27.2548 31.0607 27.7032C31.0607 27.9251 31.1044 28.145 31.1894 28.3501C31.2743 28.5551 31.3988 28.7415 31.5558 28.8985C31.7128 29.0554 31.8991 29.18 32.1042 29.2649C32.3093 29.3499 32.5291 29.3936 32.7511 29.3936C33.1994 29.3936 33.6294 29.2155 33.9464 28.8985L38.175 24.6713C39.1246 23.7215 40.4125 23.1879 41.7555 23.1878C43.0985 23.1876 44.3866 23.721 45.3363 24.6706C46.2861 25.6201 46.8197 26.9081 46.8199 28.2511C46.82 29.5941 46.2866 30.8822 45.337 31.8319L41.1028 36.0577C40.9459 36.2147 40.8213 36.401 40.7364 36.6061C40.6514 36.8112 40.6077 37.031 40.6077 37.253C40.6077 37.475 40.6514 37.6948 40.7364 37.8999C40.8213 38.105 40.9459 38.2913 41.1028 38.4483C41.2598 38.6053 41.4462 38.7298 41.6512 38.8147C41.8563 38.8997 42.0762 38.9434 42.2981 38.9434C42.5201 38.9434 42.74 38.8997 42.945 38.8147C43.1501 38.7298 43.3365 38.6053 43.4935 38.4483L47.7235 34.2211C49.3046 32.6363 50.1922 30.4887 50.1914 28.25C50.1906 26.0113 49.3015 23.8644 47.7192 22.2807L47.7263 22.2764ZM36.0572 41.1033L31.8286 45.3333C31.3583 45.8035 30.8001 46.1764 30.1857 46.4308C29.5713 46.6853 28.9128 46.8162 28.2478 46.8161C27.5828 46.8161 26.9243 46.685 26.31 46.4305C25.6957 46.1759 25.1375 45.8029 24.6673 45.3326C23.7177 44.3829 23.1843 43.0948 23.1845 41.7518C23.1846 40.4088 23.7182 39.1208 24.668 38.1713L28.8952 33.9427C29.0521 33.7857 29.1767 33.5994 29.2616 33.3943C29.3466 33.1892 29.3903 32.9694 29.3903 32.7474C29.3903 32.5254 29.3466 32.3056 29.2616 32.1005C29.1767 31.8954 29.0521 31.709 28.8952 31.5521C28.7382 31.3951 28.5519 31.2706 28.3468 31.1856C28.1417 31.1007 27.9219 31.0569 27.6999 31.0569C27.4779 31.0569 27.2581 31.1007 27.053 31.1856C26.8479 31.2706 26.6615 31.3951 26.5045 31.5521L22.2802 35.7849C21.4965 36.5686 20.8749 37.499 20.4508 38.523C20.0268 39.547 19.8085 40.6445 19.8086 41.7528C19.8087 43.9911 20.698 46.1378 22.2809 47.7204C23.8637 49.3031 26.0104 50.1921 28.2488 50.192C30.4871 50.1919 32.6338 49.3026 34.2164 47.7197L38.4436 43.4911C38.7606 43.1741 38.9387 42.7441 38.9387 42.2958C38.9387 41.8475 38.7606 41.4175 38.4436 41.1005C38.1266 40.7835 37.6966 40.6054 37.2483 40.6054C36.8 40.6054 36.37 40.7835 36.053 41.1005L36.0572 41.1033Z" fill="#C1C1C1"/>
</g>
<rect x="1.5" y="1.5" width="67" height="67" rx="33.5" stroke="url(#paint0_linear_40002238_12048)" stroke-width="3"/>
<defs>
<linearGradient id="paint0_linear_40002238_12048" x1="8.5" y1="5.61987e-07" x2="63.5" y2="70" gradientUnits="userSpaceOnUse">
<stop stop-color="#55EAB0"/>
<stop offset="1" stop-color="#D9F128"/>
</linearGradient>
<clipPath id="clip0_40002238_12048">
<rect width="70" height="70" rx="35" fill="white"/>
</clipPath>
</defs>
</svg>
