<svg width="35" height="16" viewBox="0 0 35 16" fill="none" xmlns="http://www.w3.org/2000/svg">
<path id="Vector" d="M34.11 14.49L30.19 7.87L34.07 1.52C34.1621 1.36868 34.2124 1.1956 34.2157 1.01848C34.2189 0.841351 34.1751 0.666534 34.0886 0.511912C34.0022 0.35729 33.8762 0.228414 33.7236 0.138469C33.5709 0.0485231 33.3972 0.000737145 33.22 0H2C1.46957 0 0.960859 0.210714 0.585786 0.585787C0.210714 0.96086 0 1.46957 0 2L0 14C0 14.5304 0.210714 15.0391 0.585786 15.4142C0.960859 15.7893 1.46957 16 2 16H33.25C33.4265 16 33.5999 15.9532 33.7524 15.8645C33.905 15.7758 34.0314 15.6483 34.1188 15.4949C34.2061 15.3415 34.2513 15.1678 34.2498 14.9913C34.2482 14.8148 34.2 14.6418 34.11 14.49ZM10.51 11.18H9.39L6.13 6.84V11.19H5V5H6.13L9.4 9.35V5H10.52L10.51 11.18ZM16.84 6H13.31V7.49H16.51V8.49H13.31V10.1H16.84V11.1H12.18V5H16.83L16.84 6ZM25.13 11.16H24L22.45 6.57L20.9 11.18H19.78L17.78 5H19L20.32 9.43L21.84 5H23.06L24.52 9.43L25.85 5H27.08L25.13 11.16Z" fill="#55EAB0"/>
</svg>
