<svg xmlns="http://www.w3.org/2000/svg" width="20" height="21" viewBox="0 0 20 21" fill="none">
  <mask id="mask0_1183_16546" style="mask-type:alpha" maskUnits="userSpaceOnUse" x="0" y="0" width="20" height="21">
    <rect y="0.5" width="20" height="20" fill="#D9D9D9"/>
  </mask>
  <g mask="url(#mask0_1183_16546)">
    <path d="M4.16667 16.3333H5.35417L13.5 8.1875L12.3125 7L4.16667 15.1458V16.3333ZM3.33333 18C3.09722 18 2.89931 17.9201 2.73958 17.7604C2.57986 17.6007 2.5 17.4028 2.5 17.1667V15.1458C2.5 14.9236 2.54167 14.7118 2.625 14.5104C2.70833 14.309 2.82639 14.1319 2.97917 13.9792L13.5 3.47917C13.6667 3.32639 13.8507 3.20833 14.0521 3.125C14.2535 3.04167 14.4653 3 14.6875 3C14.9097 3 15.125 3.04167 15.3333 3.125C15.5417 3.20833 15.7222 3.33333 15.875 3.5L17.0208 4.66667C17.1875 4.81944 17.309 5 17.3854 5.20833C17.4618 5.41667 17.5 5.625 17.5 5.83333C17.5 6.05556 17.4618 6.26736 17.3854 6.46875C17.309 6.67014 17.1875 6.85417 17.0208 7.02083L6.52083 17.5208C6.36806 17.6736 6.19097 17.7917 5.98958 17.875C5.78819 17.9583 5.57639 18 5.35417 18H3.33333ZM12.8958 7.60417L12.3125 7L13.5 8.1875L12.8958 7.60417Z" fill="#1D1D1D"/>
  </g>
</svg>