<svg width="8" height="7" viewBox="0 0 8 7" fill="none" xmlns="http://www.w3.org/2000/svg">
<path d="M1.60508 6.27987C1.11018 6.27987 0.715598 6.11268 0.421333 5.77829C0.140444 5.4439 0 5.056 0 4.6146C0 4.30696 0.0267513 4.02607 0.080254 3.77194C0.147132 3.50442 0.234074 3.19678 0.341079 2.84902L1.24394 0H3.17003L2.14679 3.1901C2.49456 3.2971 2.75539 3.50442 2.92927 3.81206C3.10315 4.10633 3.1901 4.40728 3.1901 4.71492C3.1901 5.14294 3.02959 5.51077 2.70857 5.81841C2.40093 6.12605 2.0331 6.27987 1.60508 6.27987ZM6.13943 6.27987C5.64453 6.27987 5.24995 6.11268 4.95568 5.77829C4.67479 5.4439 4.53435 5.056 4.53435 4.6146C4.53435 4.30696 4.5611 4.02607 4.6146 3.77194C4.68148 3.50442 4.76842 3.19678 4.87543 2.84902L5.77829 0H7.70438L6.68114 3.1901C7.02891 3.2971 7.28974 3.50442 7.46362 3.81206C7.6375 4.10633 7.72445 4.40728 7.72445 4.71492C7.72445 5.14294 7.56394 5.51077 7.24292 5.81841C6.93528 6.12605 6.56745 6.27987 6.13943 6.27987Z" fill="#55EAB0"/>
</svg>
