<svg xmlns="http://www.w3.org/2000/svg" width="20" height="21" viewBox="0 0 20 21" fill="none">
  <mask id="mask0_1183_16551" style="mask-type:alpha" maskUnits="userSpaceOnUse" x="0" y="0" width="20" height="21">
    <rect y="0.5" width="20" height="20" fill="#D9D9D9"/>
  </mask>
  <g mask="url(#mask0_1183_16551)">
    <path d="M5.8335 18C5.37516 18 4.9828 17.8368 4.65641 17.5104C4.33002 17.184 4.16683 16.7917 4.16683 16.3333V5.5H3.3335V3.83333H7.50016V3H12.5002V3.83333H16.6668V5.5H15.8335V16.3333C15.8335 16.7917 15.6703 17.184 15.3439 17.5104C15.0175 17.8368 14.6252 18 14.1668 18H5.8335ZM14.1668 5.5H5.8335V16.3333H14.1668V5.5ZM7.50016 14.6667H9.16683V7.16667H7.50016V14.6667ZM10.8335 14.6667H12.5002V7.16667H10.8335V14.6667Z" fill="#FF0000"/>
  </g>
</svg>