<svg width="42" height="16" viewBox="0 0 42 16" fill="none" xmlns="http://www.w3.org/2000/svg">
<path d="M5.25 3.51562V5.04688H3.5V12H1.5V5.04688H0.234375V3.51562H1.5V2.70312C1.5 1.05469 2.52344 0.15625 4.15625 0.15625C4.61719 0.15625 5.04688 0.203125 5.42188 0.28125V1.85938C5.09375 1.8125 4.85156 1.80469 4.70312 1.79688C3.89844 1.80469 3.49219 2.11719 3.5 2.89062V3.51562H5.25ZM10.5919 0.6875V12H8.59188V0.6875H10.5919ZM14.4181 12V3.51562H16.4181V12H14.4181ZM14.2775 1.21875C14.2775 0.625 14.8009 0.140625 15.4338 0.140625C16.0666 0.140625 16.59 0.625 16.59 1.21875C16.59 1.82031 16.0666 2.30469 15.4338 2.3125C14.8009 2.30469 14.2775 1.82031 14.2775 1.21875ZM20.2444 15.1875V3.51562H22.1975V4.90625H22.3225C22.6272 4.30469 23.2522 3.40625 24.76 3.40625C26.7131 3.40625 28.2522 4.9375 28.26 7.76562C28.2522 10.5547 26.76 12.1484 24.76 12.1562C23.2991 12.1484 22.635 11.2812 22.3225 10.6562H22.2444V15.1875H20.2444ZM22.1975 7.75C22.2053 9.40625 22.9241 10.5156 24.2131 10.5156C25.5334 10.5156 26.2288 9.35156 26.2288 7.75C26.2288 6.17188 25.5491 5.03906 24.2131 5.03125C22.9084 5.03906 22.2053 6.10156 22.1975 7.75ZM31.7425 12V3.51562H33.7425V12H31.7425ZM31.6019 1.21875C31.6019 0.625 32.1253 0.140625 32.7581 0.140625C33.3909 0.140625 33.9144 0.625 33.9144 1.21875C33.9144 1.82031 33.3909 2.30469 32.7581 2.3125C32.1253 2.30469 31.6019 1.82031 31.6019 1.21875ZM41.8031 3.51562V5.04688H40.1312V9.45312C40.1312 10.2656 40.5375 10.4297 41.0375 10.4375C41.2719 10.4453 41.6625 10.4219 41.9125 10.4062V12.0312C41.6781 12.0703 41.2953 12.1172 40.7875 12.1094C39.2875 12.1172 38.1312 11.375 38.1469 9.78125V5.04688H36.9281V3.51562H38.1469V1.48438H40.1312V3.51562H41.8031Z" fill="url(#paint0_linear_1477_20245)"/>
<defs>
<linearGradient id="paint0_linear_1477_20245" x1="3" y1="5" x2="36" y2="8.5" gradientUnits="userSpaceOnUse">
<stop stop-color="#55EAB0"/>
<stop offset="1" stop-color="#D9F128"/>
</linearGradient>
</defs>
</svg>
