<svg width="34" height="16" viewBox="0 0 34 16" fill="none" xmlns="http://www.w3.org/2000/svg">
<path d="M5.0625 3.51562V4.84375H3.23438V12H1.5625V4.84375H0.25V3.51562H1.5625V2.53125C1.57031 1.01562 2.53906 0.15625 4.09375 0.15625C4.49219 0.15625 4.90625 0.203125 5.23438 0.265625V1.65625C4.92188 1.60938 4.67969 1.59375 4.53125 1.59375C3.64844 1.59375 3.23438 1.95312 3.23438 2.78125V3.51562H5.0625ZM10.17 0.6875V12H8.49813V0.6875H10.17ZM14.1213 12V3.51562H15.7931V12H14.1213ZM13.9025 1.21875C13.9103 0.671875 14.3869 0.234375 14.965 0.234375C15.5353 0.234375 16.0119 0.671875 16.0119 1.21875C16.0119 1.76562 15.5353 2.21094 14.965 2.20312C14.3869 2.21094 13.9103 1.76562 13.9025 1.21875ZM19.7444 15.1875V3.51562H21.3694V4.89062H21.51C21.8069 4.35938 22.3772 3.40625 23.9475 3.40625C26.0022 3.40625 27.51 5.01562 27.51 7.78125C27.51 10.5156 26.0178 12.1641 23.9631 12.1719C22.4241 12.1641 21.8147 11.2266 21.51 10.6719H21.4163V15.1875H19.7444ZM21.385 7.75C21.385 9.53125 22.1663 10.7422 23.5881 10.75C25.0569 10.7422 25.8225 9.45312 25.8225 7.75C25.8225 6.07812 25.0803 4.82031 23.5881 4.82812C22.1506 4.82031 21.385 5.98438 21.385 7.75ZM33.1644 0.6875L33.0238 8.73438H31.4769L31.3363 0.6875H33.1644ZM31.1488 11C31.1409 10.3906 31.6488 9.89062 32.2581 9.89062C32.8597 9.89062 33.3597 10.3906 33.3675 11C33.3597 11.6094 32.8597 12.1016 32.2581 12.1094C31.6488 12.1016 31.1409 11.6094 31.1488 11Z" fill="white"/>
</svg>
