<svg xmlns="http://www.w3.org/2000/svg" width="20" height="21" viewBox="0 0 20 21" fill="none">
  <mask id="mask0_1183_15470" style="mask-type:alpha" maskUnits="userSpaceOnUse" x="0" y="0" width="20" height="21">
    <rect y="0.5" width="20" height="20" fill="#D9D9D9"/>
  </mask>
  <g mask="url(#mask0_1183_15470)">
    <path d="M10 13.8333L5.83337 9.66658L7.00004 8.45825L9.16671 10.6249V3.83325H10.8334V10.6249L13 8.45825L14.1667 9.66658L10 13.8333ZM5.00004 17.1666C4.54171 17.1666 4.14935 17.0034 3.82296 16.677C3.49657 16.3506 3.33337 15.9583 3.33337 15.4999V12.9999H5.00004V15.4999H15V12.9999H16.6667V15.4999C16.6667 15.9583 16.5035 16.3506 16.1771 16.677C15.8507 17.0034 15.4584 17.1666 15 17.1666H5.00004Z" fill="#1D1D1D"/>
  </g>
</svg>