<svg xmlns="http://www.w3.org/2000/svg" width="20" height="21" viewBox="0 0 20 21" fill="none">
  <mask id="mask0_1183_15465" style="mask-type:alpha" maskUnits="userSpaceOnUse" x="0" y="0" width="20" height="21">
    <rect y="0.5" width="20" height="20" fill="#D9D9D9"/>
  </mask>
  <g mask="url(#mask0_1183_15465)">
    <path d="M15 18.8334C14.3056 18.8334 13.7153 18.5904 13.2292 18.1042C12.7431 17.6181 12.5 17.0279 12.5 16.3334C12.5 16.2362 12.5069 16.1355 12.5208 16.0313C12.5347 15.9272 12.5556 15.8334 12.5833 15.7501L6.70833 12.3334C6.47222 12.5417 6.20833 12.7049 5.91667 12.823C5.625 12.9411 5.31944 13.0001 5 13.0001C4.30556 13.0001 3.71528 12.757 3.22917 12.2709C2.74306 11.7848 2.5 11.1945 2.5 10.5001C2.5 9.80564 2.74306 9.21536 3.22917 8.72925C3.71528 8.24314 4.30556 8.00008 5 8.00008C5.31944 8.00008 5.625 8.05911 5.91667 8.17716C6.20833 8.29522 6.47222 8.45841 6.70833 8.66675L12.5833 5.25008C12.5556 5.16675 12.5347 5.073 12.5208 4.96883C12.5069 4.86466 12.5 4.76397 12.5 4.66675C12.5 3.9723 12.7431 3.38203 13.2292 2.89591C13.7153 2.4098 14.3056 2.16675 15 2.16675C15.6944 2.16675 16.2847 2.4098 16.7708 2.89591C17.2569 3.38203 17.5 3.9723 17.5 4.66675C17.5 5.36119 17.2569 5.95147 16.7708 6.43758C16.2847 6.92369 15.6944 7.16675 15 7.16675C14.6806 7.16675 14.375 7.10772 14.0833 6.98966C13.7917 6.87161 13.5278 6.70842 13.2917 6.50008L7.41667 9.91675C7.44444 10.0001 7.46528 10.0938 7.47917 10.198C7.49306 10.3022 7.5 10.4029 7.5 10.5001C7.5 10.5973 7.49306 10.698 7.47917 10.8022C7.46528 10.9063 7.44444 11.0001 7.41667 11.0834L13.2917 14.5001C13.5278 14.2917 13.7917 14.1286 14.0833 14.0105C14.375 13.8924 14.6806 13.8334 15 13.8334C15.6944 13.8334 16.2847 14.0765 16.7708 14.5626C17.2569 15.0487 17.5 15.639 17.5 16.3334C17.5 17.0279 17.2569 17.6181 16.7708 18.1042C16.2847 18.5904 15.6944 18.8334 15 18.8334ZM15 5.50008C15.2361 5.50008 15.434 5.42022 15.5938 5.2605C15.7535 5.10078 15.8333 4.90286 15.8333 4.66675C15.8333 4.43064 15.7535 4.23272 15.5938 4.073C15.434 3.91328 15.2361 3.83341 15 3.83341C14.7639 3.83341 14.566 3.91328 14.4062 4.073C14.2465 4.23272 14.1667 4.43064 14.1667 4.66675C14.1667 4.90286 14.2465 5.10078 14.4062 5.2605C14.566 5.42022 14.7639 5.50008 15 5.50008ZM5 11.3334C5.23611 11.3334 5.43403 11.2536 5.59375 11.0938C5.75347 10.9341 5.83333 10.7362 5.83333 10.5001C5.83333 10.264 5.75347 10.0661 5.59375 9.90633C5.43403 9.74661 5.23611 9.66675 5 9.66675C4.76389 9.66675 4.56597 9.74661 4.40625 9.90633C4.24653 10.0661 4.16667 10.264 4.16667 10.5001C4.16667 10.7362 4.24653 10.9341 4.40625 11.0938C4.56597 11.2536 4.76389 11.3334 5 11.3334ZM15 17.1667C15.2361 17.1667 15.434 17.0869 15.5938 16.9272C15.7535 16.7674 15.8333 16.5695 15.8333 16.3334C15.8333 16.0973 15.7535 15.8994 15.5938 15.7397C15.434 15.5799 15.2361 15.5001 15 15.5001C14.7639 15.5001 14.566 15.5799 14.4062 15.7397C14.2465 15.8994 14.1667 16.0973 14.1667 16.3334C14.1667 16.5695 14.2465 16.7674 14.4062 16.9272C14.566 17.0869 14.7639 17.1667 15 17.1667Z" fill="#1D1D1D"/>
  </g>
</svg>