<svg width="35" height="16" viewBox="0 0 35 16" fill="none" xmlns="http://www.w3.org/2000/svg">
<path d="M34.86 14.49L30.94 7.87L34.82 1.52C34.9121 1.36868 34.9624 1.1956 34.9657 1.01848C34.9689 0.841351 34.9251 0.666534 34.8386 0.511912C34.7522 0.35729 34.6262 0.228414 34.4736 0.138469C34.3209 0.0485231 34.1472 0.000737145 33.97 0H2.75C2.21957 0 1.71086 0.210714 1.33579 0.585787C0.960714 0.96086 0.75 1.46957 0.75 2L0.75 14C0.75 14.5304 0.960714 15.0391 1.33579 15.4142C1.71086 15.7893 2.21957 16 2.75 16H34C34.1765 16 34.3499 15.9532 34.5024 15.8645C34.655 15.7758 34.7814 15.6483 34.8688 15.4949C34.9561 15.3415 35.0013 15.1678 34.9998 14.9913C34.9982 14.8148 34.95 14.6418 34.86 14.49ZM11.26 11.18H10.14L6.88 6.84V11.19H5.75V5H6.88L10.15 9.35V5H11.27L11.26 11.18ZM17.59 6H14.06V7.49H17.26V8.49H14.06V10.1H17.59V11.1H12.93V5H17.58L17.59 6ZM25.88 11.16H24.75L23.2 6.57L21.65 11.18H20.53L18.53 5H19.75L21.07 9.43L22.59 5H23.81L25.27 9.43L26.6 5H27.83L25.88 11.16Z" fill="#55EAB0"/>
</svg>
