<svg width="16" height="17" viewBox="0 0 16 17" fill="none" xmlns="http://www.w3.org/2000/svg">
<g id="check">
<mask id="mask0_1664_1723" style="mask-type:alpha" maskUnits="userSpaceOnUse" x="0" y="0" width="16" height="17">
<rect id="Bounding box" y="0.0908203" width="16" height="16" fill="#D9D9D9"/>
</mask>
<g mask="url(#mask0_1664_1723)">
<path id="check_2" d="M6.36664 10.1908L12.0166 4.54082C12.15 4.40749 12.3055 4.34082 12.4833 4.34082C12.6611 4.34082 12.8166 4.40749 12.95 4.54082C13.0833 4.67415 13.15 4.83249 13.15 5.01582C13.15 5.19915 13.0833 5.35749 12.95 5.49082L6.83331 11.6242C6.69998 11.7575 6.54442 11.8242 6.36664 11.8242C6.18886 11.8242 6.03331 11.7575 5.89998 11.6242L3.03331 8.75749C2.89998 8.62415 2.83609 8.46582 2.84164 8.28249C2.8472 8.09915 2.91664 7.94082 3.04998 7.80749C3.18331 7.67415 3.34164 7.60749 3.52498 7.60749C3.70831 7.60749 3.86664 7.67415 3.99998 7.80749L6.36664 10.1908Z" fill="white"/>
</g>
</g>
</svg>
