<svg xmlns="http://www.w3.org/2000/svg" width="201" height="90" viewBox="0 0 201 90" fill="none">
  <rect x="80.8799" y="22.8125" width="45.0778" height="15.7501" transform="rotate(90 80.8799 22.8125)" fill="#D9F128"/>
  <rect x="140.078" y="45.4707" width="45.4678" height="15.7501" transform="rotate(-90 140.078 45.4707)" fill="#55EAB0"/>
  <rect x="12.8701" y="0.222656" width="47.6838" height="13.9452" fill="white"/>
  <rect x="1.20801" y="27.8867" width="38.7318" height="13.8327" fill="white"/>
  <rect x="28.1641" y="0.222656" width="67.0268" height="15.2948" transform="rotate(90 28.1641 0.222656)" fill="white"/>
  <rect x="60.5537" y="0.222656" width="67.0268" height="15.2948" transform="rotate(90 60.5537 0.222656)" fill="white"/>
  <rect x="101.939" y="22.7168" width="67.0268" height="15.2948" transform="rotate(90 101.939 22.7168)" fill="white"/>
  <path fill-rule="evenodd" clip-rule="evenodd" d="M111.611 67.9317C124.033 67.9317 134.103 57.8616 134.103 45.4395C134.103 33.0174 124.033 22.9473 111.611 22.9473C99.1883 22.9473 89.1182 33.0174 89.1182 45.4395C89.1182 57.8616 99.1883 67.9317 111.611 67.9317ZM111.385 54.2106C116.354 54.2106 120.382 50.1825 120.382 45.2137C120.382 40.2448 116.354 36.2168 111.385 36.2168C106.416 36.2168 102.388 40.2448 102.388 45.2137C102.388 50.1825 106.416 54.2106 111.385 54.2106Z" fill="white"/>
  <rect x="160.174" y="27.3496" width="38.7318" height="13.8327" fill="white"/>
  <rect x="171.942" y="67.8945" width="67.4356" height="15.3881" transform="rotate(-90 171.942 67.8945)" fill="white"/>
  <ellipse cx="147.954" cy="60.0117" rx="7.87507" ry="7.87503" fill="#55EAB0"/>
  <ellipse cx="73.005" cy="7.87503" rx="7.87507" ry="7.87503" fill="#D9F128"/>
</svg>