<svg xmlns="http://www.w3.org/2000/svg" width="20" height="20" viewBox="0 0 20 20" fill="none">
  <rect width="20" height="20" rx="4" fill="#55EAB0"/>
  <mask id="mask0_899_5759" style="mask-type:alpha" maskUnits="userSpaceOnUse" x="2" y="2" width="16" height="16">
    <rect x="2" y="2" width="16" height="16" fill="#D9D9D9"/>
  </mask>
  <g mask="url(#mask0_899_5759)">
    <path d="M8.37104 12.1L14.021 6.45C14.1544 6.31667 14.3127 6.25 14.496 6.25C14.6794 6.25 14.8377 6.31667 14.971 6.45C15.1044 6.58333 15.171 6.74167 15.171 6.925C15.171 7.10833 15.1044 7.26667 14.971 7.4L8.8377 13.5333C8.70437 13.6667 8.54881 13.7333 8.37104 13.7333C8.19326 13.7333 8.0377 13.6667 7.90437 13.5333L5.0377 10.6667C4.90437 10.5333 4.84048 10.375 4.84604 10.1917C4.85159 10.0083 4.92104 9.85 5.05437 9.71667C5.1877 9.58333 5.34604 9.51667 5.52937 9.51667C5.7127 9.51667 5.87104 9.58333 6.00437 9.71667L8.37104 12.1Z" fill="white"/>
  </g>
</svg>