<svg width="14" height="14" viewBox="0 0 14 14" fill="none" xmlns="http://www.w3.org/2000/svg">
<mask id="mask0_1183_16822" style="mask-type:alpha" maskUnits="userSpaceOnUse" x="0" y="0" width="14" height="14">
<rect width="14" height="14" fill="#D9D9D9"/>
</mask>
<g mask="url(#mask0_1183_16822)">
<g clip-path="url(#clip0_1183_16822)">
<path d="M11.62 2.35891C10.7695 1.50841 9.289 1.56091 8.386 2.47441L6.517 4.34341C6.286 4.57441 6.286 4.91041 6.517 5.14141C6.748 5.37241 7.084 5.37241 7.315 5.14141L9.184 3.26191C9.6985 2.74741 10.4335 2.74741 10.8325 3.14641C11.2315 3.54541 11.2315 4.34341 10.717 4.79491L8.848 6.67441C8.617 6.90541 8.617 7.24141 8.848 7.47241C8.9635 7.58791 9.1315 7.64041 9.247 7.64041C9.415 7.64041 9.5305 7.58791 9.646 7.47241L11.515 5.59291C12.481 4.68991 12.481 3.20941 11.62 2.35891Z" fill="white"/>
<path d="M6.748 8.78503L4.7005 10.8325C4.3015 11.2315 3.5665 11.2315 3.1675 10.8325C2.9365 10.6015 2.8315 10.381 2.8315 10.0345C2.8315 9.69853 2.947 9.46753 3.1675 9.23653L5.2675 7.13653C5.4985 6.90553 5.4985 6.56953 5.2675 6.33853C5.0365 6.10753 4.7005 6.10753 4.4695 6.33853L2.3695 8.43853C1.981 8.83753 1.75 9.40453 1.75 10.0345C1.75 10.6645 1.981 11.1685 2.3695 11.6305C2.7685 12.0295 3.3355 12.2605 3.955 12.2605C4.522 12.2605 5.089 12.0295 5.5405 11.6305L7.6405 9.53053C7.8715 9.29953 7.8715 8.96353 7.6405 8.73253C7.3675 8.55403 6.9685 8.55403 6.748 8.78503Z" fill="white"/>
<path d="M8.61692 5.37247C8.38592 5.14147 8.04992 5.14147 7.81892 5.37247L5.61392 7.58797C5.38292 7.81897 5.38292 8.15497 5.61392 8.38597C5.72942 8.50147 5.89742 8.55397 6.01292 8.55397C6.12842 8.55397 6.29642 8.50147 6.41192 8.38597L8.62742 6.17047C8.84792 5.93947 8.84792 5.59297 8.61692 5.37247Z" fill="white"/>
</g>
</g>
<defs>
<clipPath id="clip0_1183_16822">
<rect width="10.5" height="10.5" fill="white" transform="translate(1.75 1.75)"/>
</clipPath>
</defs>
</svg>
