<svg xmlns="http://www.w3.org/2000/svg" width="15" height="15" viewBox="0 0 15 15" fill="none">
  <g clip-path="url(#clip0_1003_7807)">
    <path d="M14.5446 0.277344H5.07296C4.81795 0.277344 4.61759 0.477706 4.61759 0.732713V7.08966C3.47006 6.06964 1.72144 6.17893 0.701413 7.30824C-0.318614 8.43756 -0.209326 10.2044 0.91999 11.2244C2.06752 12.2444 3.81614 12.1352 4.83616 11.0058C5.27332 10.5323 5.51011 9.91295 5.52833 9.27544V4.43031H14.071V9.87652C12.9235 8.8565 11.1749 8.94757 10.1549 10.0951C9.13485 11.2426 9.22592 12.9912 10.3735 14.0113C11.521 15.0313 13.2696 14.9402 14.2896 13.7927C14.745 13.2827 15 12.627 15 11.9348C15 11.8984 15 11.8619 15 11.8255V0.732713C15 0.477706 14.7996 0.277344 14.5446 0.277344Z" fill="#939393"/>
  </g>
  <defs>
    <clipPath id="clip0_1003_7807">
      <rect width="15" height="15" fill="white"/>
    </clipPath>
  </defs>
</svg>