<svg width="14" height="14" viewBox="0 0 14 14" fill="none" xmlns="http://www.w3.org/2000/svg">
<mask id="mask0_1183_16811" style="mask-type:alpha" maskUnits="userSpaceOnUse" x="0" y="0" width="14" height="14">
<rect width="14" height="14" fill="#D9D9D9"/>
</mask>
<g mask="url(#mask0_1183_16811)">
</g>
<g clip-path="url(#clip0_1183_16811)">
<path d="M11.1812 2.00073H4.55106C4.37255 2.00073 4.2323 2.14099 4.2323 2.31949V6.76936C3.42903 6.05534 2.205 6.13184 1.49098 6.92236C0.776959 7.71288 0.853461 8.94967 1.64398 9.66368C2.44725 10.3777 3.67129 10.3012 4.3853 9.51068C4.69131 9.17917 4.85707 8.74566 4.86982 8.2994V4.90781H10.8497V8.72016C10.0465 8.00614 8.82242 8.06989 8.1084 8.87316C7.39438 9.67643 7.45814 10.9005 8.26141 11.6145C9.06468 12.3285 10.2887 12.2648 11.0027 11.4615C11.3215 11.1045 11.5 10.6455 11.5 10.1609C11.5 10.1354 11.5 10.1099 11.5 10.0844V2.31949C11.5 2.14099 11.3597 2.00073 11.1812 2.00073Z" fill="white"/>
</g>
<defs>
<clipPath id="clip0_1183_16811">
<rect width="10.5" height="10.5" fill="white" transform="translate(1.3999 2.1001)"/>
</clipPath>
</defs>
</svg>
