<svg xmlns="http://www.w3.org/2000/svg" width="15" height="15" viewBox="0 0 15 15" fill="none">
  <g clip-path="url(#clip0_775_2083)">
    <path d="M14.5446 0.279297H5.07294C4.81793 0.279297 4.61757 0.479659 4.61757 0.734666V7.09162C3.47004 6.07159 1.72142 6.18088 0.701397 7.3102C-0.318629 8.43951 -0.209341 10.2063 0.919975 11.2264C2.0675 12.2464 3.81612 12.1371 4.83615 11.0078C5.2733 10.5342 5.5101 9.91491 5.52831 9.27739V4.43226H14.071V9.87848C12.9235 8.85845 11.1749 8.94953 10.1549 10.0971C9.13483 11.2446 9.22591 12.9932 10.3734 14.0132C11.521 15.0333 13.2696 14.9422 14.2896 13.7947C14.745 13.2846 15 12.6289 15 11.9367C15 11.9003 15 11.8639 15 11.8275V0.734666C15 0.479659 14.7996 0.279297 14.5446 0.279297Z" fill="currentColor"/>
  </g>
  <defs>
    <clipPath id="clip0_775_2083">
      <rect width="15" height="15" fill="currentColor"/>
    </clipPath>
  </defs>
</svg>

