<svg xmlns="http://www.w3.org/2000/svg" width="15" height="15" viewBox="0 0 15 15" fill="none">
  <g clip-path="url(#clip0_1637_1199)">
    <path d="M14.5446 0.279205H5.07296C4.81795 0.279205 4.61759 0.479568 4.61759 0.734574V7.09153C3.47006 6.0715 1.72144 6.18079 0.701413 7.3101C-0.318614 8.43942 -0.209326 10.2063 0.91999 11.2263C2.06752 12.2463 3.81614 12.137 4.83616 11.0077C5.27332 10.5341 5.51011 9.91481 5.52833 9.2773V4.43217H14.071V9.87839C12.9235 8.85836 11.1749 8.94943 10.1549 10.097C9.13485 11.2445 9.22592 12.9931 10.3735 14.0131C11.521 15.0332 13.2696 14.9421 14.2896 13.7946C14.745 13.2845 15 12.6288 15 11.9367C15 11.9002 15 11.8638 15 11.8274V0.734574C15 0.479568 14.7996 0.279205 14.5446 0.279205Z" fill="white"/>
  </g>
  <defs>
    <clipPath id="clip0_1637_1199">
      <rect width="15" height="15" fill="white"/>
    </clipPath>
  </defs>
</svg>