<svg width="14" height="14" viewBox="0 0 14 14" fill="none" xmlns="http://www.w3.org/2000/svg">
<mask id="mask0_1183_15282" style="mask-type:alpha" maskUnits="userSpaceOnUse" x="0" y="0" width="14" height="14">
<rect width="14" height="14" fill="#D9D9D9"/>
</mask>
<g mask="url(#mask0_1183_15282)">
<path d="M9.33333 11.0834C9.0125 11.0834 8.73785 10.9692 8.50938 10.7407C8.2809 10.5122 8.16667 10.2376 8.16667 9.91675V4.08341C8.16667 3.76258 8.2809 3.48793 8.50938 3.25946C8.73785 3.03098 9.0125 2.91675 9.33333 2.91675C9.65417 2.91675 9.92882 3.03098 10.1573 3.25946C10.3858 3.48793 10.5 3.76258 10.5 4.08341V9.91675C10.5 10.2376 10.3858 10.5122 10.1573 10.7407C9.92882 10.9692 9.65417 11.0834 9.33333 11.0834ZM4.66667 11.0834C4.34583 11.0834 4.07118 10.9692 3.84271 10.7407C3.61424 10.5122 3.5 10.2376 3.5 9.91675V4.08341C3.5 3.76258 3.61424 3.48793 3.84271 3.25946C4.07118 3.03098 4.34583 2.91675 4.66667 2.91675C4.9875 2.91675 5.26215 3.03098 5.49063 3.25946C5.7191 3.48793 5.83333 3.76258 5.83333 4.08341V9.91675C5.83333 10.2376 5.7191 10.5122 5.49063 10.7407C5.26215 10.9692 4.9875 11.0834 4.66667 11.0834Z" fill="white"/>
</g>
</svg>
