<svg xmlns="http://www.w3.org/2000/svg" width="20" height="21" viewBox="0 0 20 21" fill="none">
  <mask id="mask0_1003_7961" style="mask-type:alpha" maskUnits="userSpaceOnUse" x="0" y="0" width="20" height="21">
    <rect y="0.5" width="20" height="20" fill="#D9D9D9"/>
  </mask>
  <g mask="url(#mask0_1003_7961)">
    <path d="M13.3333 16.3346C12.875 16.3346 12.4826 16.1714 12.1563 15.8451C11.8299 15.5187 11.6667 15.1263 11.6667 14.668V6.33464C11.6667 5.8763 11.8299 5.48394 12.1563 5.15755C12.4826 4.83116 12.875 4.66797 13.3333 4.66797C13.7917 4.66797 14.184 4.83116 14.5104 5.15755C14.8368 5.48394 15 5.8763 15 6.33464V14.668C15 15.1263 14.8368 15.5187 14.5104 15.8451C14.184 16.1714 13.7917 16.3346 13.3333 16.3346ZM6.66667 16.3346C6.20833 16.3346 5.81597 16.1714 5.48958 15.8451C5.16319 15.5187 5 15.1263 5 14.668V6.33464C5 5.8763 5.16319 5.48394 5.48958 5.15755C5.81597 4.83116 6.20833 4.66797 6.66667 4.66797C7.125 4.66797 7.51736 4.83116 7.84375 5.15755C8.17014 5.48394 8.33333 5.8763 8.33333 6.33464V14.668C8.33333 15.1263 8.17014 15.5187 7.84375 15.8451C7.51736 16.1714 7.125 16.3346 6.66667 16.3346Z" fill="#1D1D1D"/>
  </g>
</svg>