<svg xmlns="http://www.w3.org/2000/svg" width="20" height="21" viewBox="0 0 20 21" fill="none">
  <mask id="mask0_1003_8124" style="mask-type:alpha" maskUnits="userSpaceOnUse" x="0" y="0" width="20" height="21">
    <rect y="0.5" width="20" height="20" fill="#D9D9D9"/>
  </mask>
  <g mask="url(#mask0_1003_8124)">
    <path d="M6.66675 14.8138V6.1888C6.66675 5.95269 6.75008 5.75477 6.91675 5.59505C7.08341 5.43533 7.27786 5.35547 7.50008 5.35547C7.56953 5.35547 7.64244 5.36589 7.71883 5.38672C7.79522 5.40755 7.86814 5.4388 7.93758 5.48047L14.7292 9.79297C14.8542 9.8763 14.948 9.98047 15.0105 10.1055C15.073 10.2305 15.1042 10.3624 15.1042 10.5013C15.1042 10.6402 15.073 10.7721 15.0105 10.8971C14.948 11.0221 14.8542 11.1263 14.7292 11.2096L7.93758 15.5221C7.86814 15.5638 7.79522 15.5951 7.71883 15.6159C7.64244 15.6367 7.56953 15.6471 7.50008 15.6471C7.27786 15.6471 7.08341 15.5673 6.91675 15.4076C6.75008 15.2478 6.66675 15.0499 6.66675 14.8138Z" fill="#1D1D1D"/>
  </g>
</svg>