<svg width="14" height="14" viewBox="0 0 14 14" fill="none" xmlns="http://www.w3.org/2000/svg">
<mask id="mask0_1183_16818" style="mask-type:alpha" maskUnits="userSpaceOnUse" x="0" y="0" width="14" height="14">
<rect width="14" height="14" fill="#D9D9D9"/>
</mask>
<g mask="url(#mask0_1183_16818)">
<path d="M4.66675 10.0188V3.98128C4.66675 3.816 4.72508 3.67746 4.84175 3.56566C4.95841 3.45385 5.09453 3.39795 5.25008 3.39795C5.29869 3.39795 5.34973 3.40524 5.40321 3.41982C5.45668 3.43441 5.50772 3.45628 5.55633 3.48545L10.3105 6.5042C10.398 6.56253 10.4636 6.63545 10.5074 6.72295C10.5511 6.81045 10.573 6.90281 10.573 7.00003C10.573 7.09725 10.5511 7.18962 10.5074 7.27712C10.4636 7.36462 10.398 7.43753 10.3105 7.49587L5.55633 10.5146C5.50772 10.5438 5.45668 10.5657 5.40321 10.5802C5.34973 10.5948 5.29869 10.6021 5.25008 10.6021C5.09453 10.6021 4.95841 10.5462 4.84175 10.4344C4.72508 10.3226 4.66675 10.1841 4.66675 10.0188Z" fill="white"/>
</g>
</svg>
