<svg xmlns="http://www.w3.org/2000/svg" width="66" height="66" viewBox="0 0 66 66" fill="none">
  <rect x="0.75" y="0.75" width="64.5" height="64.5" rx="17.25" fill="white"/>
  <rect x="0.75" y="0.75" width="64.5" height="64.5" rx="17.25" stroke="#C1C1C1" stroke-width="1.5"/>
  <mask id="mask0_1185_593" style="mask-type:alpha" maskUnits="userSpaceOnUse" x="15" y="15" width="36" height="36">
    <rect x="15" y="15" width="36" height="36" fill="#D9D9D9"/>
  </mask>
  <g mask="url(#mask0_1185_593)">
    <path d="M31.65 34.35H25.35C24.9675 34.35 24.6469 34.2214 24.3881 33.9641C24.1294 33.7069 24 33.3881 24 33.0079C24 32.6276 24.1294 32.3062 24.3881 32.0437C24.6469 31.7812 24.9675 31.65 25.35 31.65H31.65V25.35C31.65 24.9675 31.7786 24.6469 32.0359 24.3881C32.2931 24.1294 32.6119 24 32.9921 24C33.3724 24 33.6937 24.1294 33.9562 24.3881C34.2187 24.6469 34.35 24.9675 34.35 25.35V31.65H40.65C41.0325 31.65 41.3531 31.7786 41.6119 32.0359C41.8706 32.2931 42 32.6119 42 32.9921C42 33.3724 41.8706 33.6937 41.6119 33.9562C41.3531 34.2187 41.0325 34.35 40.65 34.35H34.35V40.65C34.35 41.0325 34.2214 41.3531 33.9641 41.6119C33.7069 41.8706 33.3881 42 33.0079 42C32.6276 42 32.3062 41.8706 32.0437 41.6119C31.7812 41.3531 31.65 41.0325 31.65 40.65V34.35Z" fill="#C1C1C1"/>
  </g>
</svg>