<svg width="45" height="20" viewBox="0 0 45 20" fill="none" xmlns="http://www.w3.org/2000/svg">
<rect x="17.9131" y="5.08398" width="10.0458" height="3.51" transform="rotate(90 17.9131 5.08398)" fill="#1D1D1D"/>
<rect x="31.106" y="10.1328" width="10.1328" height="3.51" transform="rotate(-90 31.106 10.1328)" fill="#1D1D1D"/>
<rect x="2.75684" y="0.0507812" width="10.6266" height="3.10776" fill="#1D1D1D"/>
<rect x="0.157715" y="6.2168" width="8.63158" height="3.0827" fill="#1D1D1D"/>
<rect x="6.16504" y="0.0507812" width="14.9373" height="3.40852" transform="rotate(90 6.16504 0.0507812)" fill="#1D1D1D"/>
<rect x="13.3833" y="0.0507812" width="14.9373" height="3.40852" transform="rotate(90 13.3833 0.0507812)" fill="#1D1D1D"/>
<rect x="22.6064" y="5.0625" width="14.9373" height="3.40852" transform="rotate(90 22.6064 5.0625)" fill="#1D1D1D"/>
<path fill-rule="evenodd" clip-rule="evenodd" d="M24.762 15.1364C27.5304 15.1364 29.7746 12.8922 29.7746 10.1239C29.7746 7.35551 27.5304 5.11133 24.762 5.11133C21.9937 5.11133 19.7495 7.35551 19.7495 10.1239C19.7495 12.8922 21.9937 15.1364 24.762 15.1364ZM24.7118 12.0788C25.8192 12.0788 26.7168 11.1811 26.7168 10.0738C26.7168 8.96642 25.8192 8.06875 24.7118 8.06875C23.6045 8.06875 22.7068 8.96642 22.7068 10.0738C22.7068 11.1811 23.6045 12.0788 24.7118 12.0788Z" fill="#1D1D1D"/>
<rect x="35.584" y="6.09375" width="8.63158" height="3.0827" fill="#1D1D1D"/>
<rect x="38.2065" y="15.1309" width="15.0284" height="3.42931" transform="rotate(-90 38.2065 15.1309)" fill="#1D1D1D"/>
<ellipse cx="32.861" cy="13.3741" rx="1.755" ry="1.755" fill="#1D1D1D"/>
<ellipse cx="16.1578" cy="1.755" rx="1.755" ry="1.755" fill="#1D1D1D"/>
</svg>
